# xmcd
#
# Track frame offsets: 
#        150
#        8546
#        24145
#        38081
#        54782
#        69031
#        85794
#        98712
#
# Disc length: 1477 seconds
#
# Revision: 1
# Processed by: cddbd v1.5.2PL0 Copyright (c) Steve Scherf et al.
# Submitted via: ExactAudioCopyFreeDBPlugin 1.0
#
DISCID=4205c308
DTITLE=Galactic - Already Ready Already
DYEAR=2019
DGENRE=Funk Soul
TTITLE0=Already
TTITLE1=Galactic  feat Princess Shaw - Going Straight Crazy 
TTITLE2=Galactic  feat  Miss Charm Taylor - Clap Your Hands  
TTITLE3=Galactic  feat David Shaw and Nahko - Everlasting Light 
TTITLE4=Galactic  feat Erica Falls - Touch Get Cut 
TTITLE5=Goose Grease
TTITLE6=Galactic  feat Boyfriend - Dance at My Funeral  
TTITLE7=Ready Already
EXTD=
EXTT0=
EXTT1=
EXTT2=
EXTT3=
EXTT4=
EXTT5=
EXTT6=
EXTT7=
PLAYORDER=
